<mxfile host="app.diagrams.net" modified="2024-03-22T03:00:41.244Z" agent="Mozilla/5.0 (Windows NT 10.0; Win64; x64) AppleWebKit/537.36 (KHTML, like Gecko) Chrome/122.0.0.0 Safari/537.36 Edg/122.0.0.0" etag="7Pzz6Uk9NWO1BFrXR2Ef" version="24.0.7" type="google" pages="2">
  <diagram id="R2lEEEUBdFMjLlhIrx00" name="EERD">
    <mxGraphModel grid="1" page="1" gridSize="10" guides="1" tooltips="1" connect="1" arrows="1" fold="1" pageScale="1" pageWidth="850" pageHeight="1100" math="0" shadow="0" extFonts="Permanent Marker^https://fonts.googleapis.com/css?family=Permanent+Marker">
      <root>
        <mxCell id="0" />
        <mxCell id="1" parent="0" />
        <mxCell id="BN82WRNj-KmG9SX7Z5Ug-1" value="USER" style="rounded=0;whiteSpace=wrap;html=1;" vertex="1" parent="1">
          <mxGeometry x="80" y="340" width="120" height="60" as="geometry" />
        </mxCell>
        <mxCell id="BN82WRNj-KmG9SX7Z5Ug-2" value="&lt;u&gt;UserID&lt;/u&gt;" style="ellipse;whiteSpace=wrap;html=1;" vertex="1" parent="1">
          <mxGeometry x="60" y="260" width="80" height="40" as="geometry" />
        </mxCell>
        <mxCell id="BN82WRNj-KmG9SX7Z5Ug-3" value="Username" style="ellipse;whiteSpace=wrap;html=1;" vertex="1" parent="1">
          <mxGeometry x="-30" y="300" width="80" height="40" as="geometry" />
        </mxCell>
        <mxCell id="BN82WRNj-KmG9SX7Z5Ug-4" value="Password" style="ellipse;whiteSpace=wrap;html=1;" vertex="1" parent="1">
          <mxGeometry x="-30" y="370" width="80" height="40" as="geometry" />
        </mxCell>
        <mxCell id="BN82WRNj-KmG9SX7Z5Ug-5" value="Email" style="ellipse;whiteSpace=wrap;html=1;" vertex="1" parent="1">
          <mxGeometry x="220" y="310" width="80" height="40" as="geometry" />
        </mxCell>
        <mxCell id="BN82WRNj-KmG9SX7Z5Ug-6" value="Name" style="ellipse;whiteSpace=wrap;html=1;" vertex="1" parent="1">
          <mxGeometry x="150" y="260" width="80" height="40" as="geometry" />
        </mxCell>
        <mxCell id="BN82WRNj-KmG9SX7Z5Ug-8" value="Fname" style="ellipse;whiteSpace=wrap;html=1;" vertex="1" parent="1">
          <mxGeometry x="130" y="200" width="80" height="40" as="geometry" />
        </mxCell>
        <mxCell id="BN82WRNj-KmG9SX7Z5Ug-9" value="Lname" style="ellipse;whiteSpace=wrap;html=1;" vertex="1" parent="1">
          <mxGeometry x="230" y="210" width="80" height="40" as="geometry" />
        </mxCell>
        <mxCell id="BN82WRNj-KmG9SX7Z5Ug-11" value="" style="endArrow=none;html=1;rounded=0;entryX=0;entryY=0.25;entryDx=0;entryDy=0;exitX=1;exitY=1;exitDx=0;exitDy=0;" edge="1" parent="1" source="BN82WRNj-KmG9SX7Z5Ug-3" target="BN82WRNj-KmG9SX7Z5Ug-1">
          <mxGeometry width="50" height="50" relative="1" as="geometry">
            <mxPoint x="80" y="580" as="sourcePoint" />
            <mxPoint x="130" y="530" as="targetPoint" />
          </mxGeometry>
        </mxCell>
        <mxCell id="BN82WRNj-KmG9SX7Z5Ug-12" value="" style="endArrow=none;html=1;rounded=0;entryX=0.5;entryY=1;entryDx=0;entryDy=0;exitX=0.25;exitY=0;exitDx=0;exitDy=0;" edge="1" parent="1" source="BN82WRNj-KmG9SX7Z5Ug-1" target="BN82WRNj-KmG9SX7Z5Ug-2">
          <mxGeometry width="50" height="50" relative="1" as="geometry">
            <mxPoint x="80" y="580" as="sourcePoint" />
            <mxPoint x="130" y="530" as="targetPoint" />
          </mxGeometry>
        </mxCell>
        <mxCell id="BN82WRNj-KmG9SX7Z5Ug-13" value="" style="endArrow=none;html=1;rounded=0;entryX=0.5;entryY=1;entryDx=0;entryDy=0;exitX=0.75;exitY=0;exitDx=0;exitDy=0;" edge="1" parent="1" source="BN82WRNj-KmG9SX7Z5Ug-1" target="BN82WRNj-KmG9SX7Z5Ug-6">
          <mxGeometry width="50" height="50" relative="1" as="geometry">
            <mxPoint x="80" y="580" as="sourcePoint" />
            <mxPoint x="130" y="530" as="targetPoint" />
          </mxGeometry>
        </mxCell>
        <mxCell id="BN82WRNj-KmG9SX7Z5Ug-14" value="" style="endArrow=none;html=1;rounded=0;entryX=0.5;entryY=0;entryDx=0;entryDy=0;exitX=0.5;exitY=1;exitDx=0;exitDy=0;" edge="1" parent="1" source="BN82WRNj-KmG9SX7Z5Ug-8" target="BN82WRNj-KmG9SX7Z5Ug-6">
          <mxGeometry width="50" height="50" relative="1" as="geometry">
            <mxPoint x="260" y="240" as="sourcePoint" />
            <mxPoint x="130" y="530" as="targetPoint" />
          </mxGeometry>
        </mxCell>
        <mxCell id="BN82WRNj-KmG9SX7Z5Ug-15" value="" style="endArrow=none;html=1;rounded=0;entryX=0;entryY=1;entryDx=0;entryDy=0;exitX=1;exitY=0;exitDx=0;exitDy=0;" edge="1" parent="1" source="BN82WRNj-KmG9SX7Z5Ug-6" target="BN82WRNj-KmG9SX7Z5Ug-9">
          <mxGeometry width="50" height="50" relative="1" as="geometry">
            <mxPoint x="80" y="480" as="sourcePoint" />
            <mxPoint x="130" y="430" as="targetPoint" />
          </mxGeometry>
        </mxCell>
        <mxCell id="BN82WRNj-KmG9SX7Z5Ug-16" value="" style="endArrow=none;html=1;rounded=0;exitX=1;exitY=0.5;exitDx=0;exitDy=0;entryX=-0.008;entryY=0.642;entryDx=0;entryDy=0;entryPerimeter=0;" edge="1" parent="1" source="BN82WRNj-KmG9SX7Z5Ug-4" target="BN82WRNj-KmG9SX7Z5Ug-1">
          <mxGeometry width="50" height="50" relative="1" as="geometry">
            <mxPoint x="80" y="480" as="sourcePoint" />
            <mxPoint x="130" y="430" as="targetPoint" />
          </mxGeometry>
        </mxCell>
        <mxCell id="BN82WRNj-KmG9SX7Z5Ug-17" value="" style="endArrow=none;html=1;rounded=0;entryX=0;entryY=1;entryDx=0;entryDy=0;exitX=1;exitY=0.25;exitDx=0;exitDy=0;" edge="1" parent="1" source="BN82WRNj-KmG9SX7Z5Ug-1" target="BN82WRNj-KmG9SX7Z5Ug-5">
          <mxGeometry width="50" height="50" relative="1" as="geometry">
            <mxPoint x="80" y="480" as="sourcePoint" />
            <mxPoint x="130" y="430" as="targetPoint" />
          </mxGeometry>
        </mxCell>
        <mxCell id="BN82WRNj-KmG9SX7Z5Ug-18" value="DEVICE" style="rounded=0;whiteSpace=wrap;html=1;" vertex="1" parent="1">
          <mxGeometry x="530" y="330" width="120" height="60" as="geometry" />
        </mxCell>
        <mxCell id="BN82WRNj-KmG9SX7Z5Ug-19" value="&lt;u&gt;DeviceID&lt;/u&gt;" style="ellipse;whiteSpace=wrap;html=1;" vertex="1" parent="1">
          <mxGeometry x="450" y="270" width="80" height="40" as="geometry" />
        </mxCell>
        <mxCell id="BN82WRNj-KmG9SX7Z5Ug-20" value="Name" style="ellipse;whiteSpace=wrap;html=1;" vertex="1" parent="1">
          <mxGeometry x="550" y="260" width="80" height="40" as="geometry" />
        </mxCell>
        <mxCell id="BN82WRNj-KmG9SX7Z5Ug-21" value="Location" style="ellipse;whiteSpace=wrap;html=1;" vertex="1" parent="1">
          <mxGeometry x="640" y="260" width="90" height="40" as="geometry" />
        </mxCell>
        <mxCell id="BN82WRNj-KmG9SX7Z5Ug-22" value="Type" style="ellipse;whiteSpace=wrap;html=1;" vertex="1" parent="1">
          <mxGeometry x="680" y="310" width="80" height="40" as="geometry" />
        </mxCell>
        <mxCell id="BN82WRNj-KmG9SX7Z5Ug-23" value="" style="endArrow=none;html=1;rounded=0;entryX=1;entryY=1;entryDx=0;entryDy=0;exitX=0.195;exitY=-0.011;exitDx=0;exitDy=0;exitPerimeter=0;" edge="1" parent="1" source="BN82WRNj-KmG9SX7Z5Ug-18" target="BN82WRNj-KmG9SX7Z5Ug-19">
          <mxGeometry width="50" height="50" relative="1" as="geometry">
            <mxPoint x="480" y="500" as="sourcePoint" />
            <mxPoint x="530" y="450" as="targetPoint" />
          </mxGeometry>
        </mxCell>
        <mxCell id="BN82WRNj-KmG9SX7Z5Ug-24" value="" style="endArrow=none;html=1;rounded=0;entryX=0.5;entryY=1;entryDx=0;entryDy=0;exitX=0.5;exitY=0;exitDx=0;exitDy=0;" edge="1" parent="1" source="BN82WRNj-KmG9SX7Z5Ug-18" target="BN82WRNj-KmG9SX7Z5Ug-20">
          <mxGeometry width="50" height="50" relative="1" as="geometry">
            <mxPoint x="480" y="500" as="sourcePoint" />
            <mxPoint x="530" y="450" as="targetPoint" />
          </mxGeometry>
        </mxCell>
        <mxCell id="BN82WRNj-KmG9SX7Z5Ug-25" value="" style="endArrow=none;html=1;rounded=0;entryX=0;entryY=1;entryDx=0;entryDy=0;exitX=0.75;exitY=0;exitDx=0;exitDy=0;" edge="1" parent="1" source="BN82WRNj-KmG9SX7Z5Ug-18" target="BN82WRNj-KmG9SX7Z5Ug-21">
          <mxGeometry width="50" height="50" relative="1" as="geometry">
            <mxPoint x="480" y="500" as="sourcePoint" />
            <mxPoint x="530" y="450" as="targetPoint" />
          </mxGeometry>
        </mxCell>
        <mxCell id="BN82WRNj-KmG9SX7Z5Ug-26" value="" style="endArrow=none;html=1;rounded=0;entryX=0;entryY=0.5;entryDx=0;entryDy=0;exitX=1;exitY=0.25;exitDx=0;exitDy=0;" edge="1" parent="1" source="BN82WRNj-KmG9SX7Z5Ug-18" target="BN82WRNj-KmG9SX7Z5Ug-22">
          <mxGeometry width="50" height="50" relative="1" as="geometry">
            <mxPoint x="480" y="500" as="sourcePoint" />
            <mxPoint x="530" y="450" as="targetPoint" />
          </mxGeometry>
        </mxCell>
        <mxCell id="BN82WRNj-KmG9SX7Z5Ug-27" value="SENSOR_DATA" style="rounded=0;whiteSpace=wrap;html=1;" vertex="1" parent="1">
          <mxGeometry x="840" y="500" width="120" height="60" as="geometry" />
        </mxCell>
        <mxCell id="BN82WRNj-KmG9SX7Z5Ug-28" value="&lt;u&gt;SensorDataID&lt;/u&gt;" style="ellipse;whiteSpace=wrap;html=1;" vertex="1" parent="1">
          <mxGeometry x="850" y="590" width="80" height="40" as="geometry" />
        </mxCell>
        <mxCell id="BN82WRNj-KmG9SX7Z5Ug-29" value="Timestamp" style="ellipse;whiteSpace=wrap;html=1;" vertex="1" parent="1">
          <mxGeometry x="940" y="590" width="80" height="40" as="geometry" />
        </mxCell>
        <mxCell id="BN82WRNj-KmG9SX7Z5Ug-30" value="Value" style="ellipse;whiteSpace=wrap;html=1;" vertex="1" parent="1">
          <mxGeometry x="1000" y="530" width="70" height="40" as="geometry" />
        </mxCell>
        <mxCell id="BN82WRNj-KmG9SX7Z5Ug-31" value="DateName" style="ellipse;whiteSpace=wrap;html=1;" vertex="1" parent="1">
          <mxGeometry x="760" y="580" width="70" height="40" as="geometry" />
        </mxCell>
        <mxCell id="BN82WRNj-KmG9SX7Z5Ug-32" value="" style="endArrow=none;html=1;rounded=0;exitX=1;exitY=0;exitDx=0;exitDy=0;entryX=0;entryY=1;entryDx=0;entryDy=0;" edge="1" parent="1" source="BN82WRNj-KmG9SX7Z5Ug-31" target="BN82WRNj-KmG9SX7Z5Ug-27">
          <mxGeometry width="50" height="50" relative="1" as="geometry">
            <mxPoint x="759.998737341529" y="599.9978643762691" as="sourcePoint" />
            <mxPoint x="790.25" y="434.14" as="targetPoint" />
          </mxGeometry>
        </mxCell>
        <mxCell id="BN82WRNj-KmG9SX7Z5Ug-33" value="" style="endArrow=none;html=1;rounded=0;exitX=0.5;exitY=0;exitDx=0;exitDy=0;entryX=0.5;entryY=1;entryDx=0;entryDy=0;" edge="1" parent="1" source="BN82WRNj-KmG9SX7Z5Ug-28" target="BN82WRNj-KmG9SX7Z5Ug-27">
          <mxGeometry width="50" height="50" relative="1" as="geometry">
            <mxPoint x="800" y="470" as="sourcePoint" />
            <mxPoint x="850" y="420" as="targetPoint" />
          </mxGeometry>
        </mxCell>
        <mxCell id="BN82WRNj-KmG9SX7Z5Ug-34" value="" style="endArrow=none;html=1;rounded=0;entryX=0.5;entryY=0;entryDx=0;entryDy=0;" edge="1" parent="1" source="BN82WRNj-KmG9SX7Z5Ug-27" target="BN82WRNj-KmG9SX7Z5Ug-29">
          <mxGeometry width="50" height="50" relative="1" as="geometry">
            <mxPoint x="800" y="470" as="sourcePoint" />
            <mxPoint x="850" y="420" as="targetPoint" />
          </mxGeometry>
        </mxCell>
        <mxCell id="BN82WRNj-KmG9SX7Z5Ug-35" value="" style="endArrow=none;html=1;rounded=0;exitX=1;exitY=0.75;exitDx=0;exitDy=0;entryX=0.036;entryY=0.254;entryDx=0;entryDy=0;entryPerimeter=0;" edge="1" parent="1" source="BN82WRNj-KmG9SX7Z5Ug-27">
          <mxGeometry width="50" height="50" relative="1" as="geometry">
            <mxPoint x="800" y="470" as="sourcePoint" />
            <mxPoint x="1002.52" y="550.1600000000001" as="targetPoint" />
          </mxGeometry>
        </mxCell>
        <mxCell id="BN82WRNj-KmG9SX7Z5Ug-36" value="ACTIVITY_LOG" style="rounded=0;whiteSpace=wrap;html=1;" vertex="1" parent="1">
          <mxGeometry x="80" y="550" width="120" height="60" as="geometry" />
        </mxCell>
        <mxCell id="BN82WRNj-KmG9SX7Z5Ug-37" value="&lt;u&gt;LogID&lt;/u&gt;" style="ellipse;whiteSpace=wrap;html=1;" vertex="1" parent="1">
          <mxGeometry x="10" y="650" width="70" height="40" as="geometry" />
        </mxCell>
        <mxCell id="BN82WRNj-KmG9SX7Z5Ug-38" value="Timestamp" style="ellipse;whiteSpace=wrap;html=1;" vertex="1" parent="1">
          <mxGeometry x="100" y="651.25" width="70" height="45" as="geometry" />
        </mxCell>
        <mxCell id="BN82WRNj-KmG9SX7Z5Ug-40" value="Action" style="ellipse;whiteSpace=wrap;html=1;" vertex="1" parent="1">
          <mxGeometry x="190" y="651.25" width="80" height="45.62" as="geometry" />
        </mxCell>
        <mxCell id="BN82WRNj-KmG9SX7Z5Ug-41" value="" style="endArrow=none;html=1;rounded=0;exitX=0.762;exitY=0.067;exitDx=0;exitDy=0;entryX=0.25;entryY=1;entryDx=0;entryDy=0;exitPerimeter=0;" edge="1" parent="1" source="BN82WRNj-KmG9SX7Z5Ug-37" target="BN82WRNj-KmG9SX7Z5Ug-36">
          <mxGeometry width="50" height="50" relative="1" as="geometry">
            <mxPoint x="270" y="450" as="sourcePoint" />
            <mxPoint x="320" y="400" as="targetPoint" />
          </mxGeometry>
        </mxCell>
        <mxCell id="BN82WRNj-KmG9SX7Z5Ug-42" value="" style="endArrow=none;html=1;rounded=0;exitX=0.5;exitY=0;exitDx=0;exitDy=0;entryX=0.5;entryY=1;entryDx=0;entryDy=0;" edge="1" parent="1" source="BN82WRNj-KmG9SX7Z5Ug-38" target="BN82WRNj-KmG9SX7Z5Ug-36">
          <mxGeometry width="50" height="50" relative="1" as="geometry">
            <mxPoint x="270" y="450" as="sourcePoint" />
            <mxPoint x="320" y="400" as="targetPoint" />
          </mxGeometry>
        </mxCell>
        <mxCell id="BN82WRNj-KmG9SX7Z5Ug-43" value="" style="endArrow=none;html=1;rounded=0;exitX=0.75;exitY=1;exitDx=0;exitDy=0;entryX=0.5;entryY=0;entryDx=0;entryDy=0;" edge="1" parent="1" source="BN82WRNj-KmG9SX7Z5Ug-36" target="BN82WRNj-KmG9SX7Z5Ug-40">
          <mxGeometry width="50" height="50" relative="1" as="geometry">
            <mxPoint x="270" y="450" as="sourcePoint" />
            <mxPoint x="320" y="400" as="targetPoint" />
          </mxGeometry>
        </mxCell>
        <mxCell id="BN82WRNj-KmG9SX7Z5Ug-48" value="AppliedTIme" style="ellipse;whiteSpace=wrap;html=1;align=center;" vertex="1" parent="1">
          <mxGeometry x="416" y="720" width="100" height="50" as="geometry" />
        </mxCell>
        <mxCell id="BN82WRNj-KmG9SX7Z5Ug-49" value="StartTime" style="ellipse;whiteSpace=wrap;html=1;align=center;" vertex="1" parent="1">
          <mxGeometry x="320" y="780" width="100" height="40" as="geometry" />
        </mxCell>
        <mxCell id="BN82WRNj-KmG9SX7Z5Ug-50" value="EndTime" style="ellipse;whiteSpace=wrap;html=1;align=center;" vertex="1" parent="1">
          <mxGeometry x="425" y="790" width="100" height="40" as="geometry" />
        </mxCell>
        <mxCell id="BN82WRNj-KmG9SX7Z5Ug-52" value="Recurrence" style="ellipse;whiteSpace=wrap;html=1;align=center;" vertex="1" parent="1">
          <mxGeometry x="640" y="645" width="100" height="40" as="geometry" />
        </mxCell>
        <mxCell id="BN82WRNj-KmG9SX7Z5Ug-53" value="Description" style="ellipse;whiteSpace=wrap;html=1;align=center;" vertex="1" parent="1">
          <mxGeometry x="620" y="696.87" width="100" height="40" as="geometry" />
        </mxCell>
        <mxCell id="BN82WRNj-KmG9SX7Z5Ug-58" value="&lt;span style=&quot;border-bottom: 1px dotted&quot;&gt;ScheduleSettingID&lt;/span&gt;" style="ellipse;whiteSpace=wrap;html=1;align=center;" vertex="1" parent="1">
          <mxGeometry x="530" y="740" width="100" height="40" as="geometry" />
        </mxCell>
        <mxCell id="BN82WRNj-KmG9SX7Z5Ug-59" value="" style="endArrow=none;html=1;rounded=0;exitX=0.75;exitY=1;exitDx=0;exitDy=0;entryX=0.5;entryY=0;entryDx=0;entryDy=0;" edge="1" parent="1" source="TkY1x3k2VqDfMiU4WUwt-1" target="BN82WRNj-KmG9SX7Z5Ug-58">
          <mxGeometry width="50" height="50" relative="1" as="geometry">
            <mxPoint x="565" y="705" as="sourcePoint" />
            <mxPoint x="646" y="775" as="targetPoint" />
          </mxGeometry>
        </mxCell>
        <mxCell id="BN82WRNj-KmG9SX7Z5Ug-60" value="" style="endArrow=none;html=1;rounded=0;entryX=0.5;entryY=0;entryDx=0;entryDy=0;exitX=0.25;exitY=1;exitDx=0;exitDy=0;" edge="1" parent="1" source="TkY1x3k2VqDfMiU4WUwt-1" target="BN82WRNj-KmG9SX7Z5Ug-48">
          <mxGeometry width="50" height="50" relative="1" as="geometry">
            <mxPoint x="495" y="705" as="sourcePoint" />
            <mxPoint x="416" y="695" as="targetPoint" />
          </mxGeometry>
        </mxCell>
        <mxCell id="BN82WRNj-KmG9SX7Z5Ug-61" value="" style="endArrow=none;html=1;rounded=0;exitX=0.5;exitY=0;exitDx=0;exitDy=0;entryX=0;entryY=1;entryDx=0;entryDy=0;" edge="1" parent="1" source="BN82WRNj-KmG9SX7Z5Ug-49" target="BN82WRNj-KmG9SX7Z5Ug-48">
          <mxGeometry width="50" height="50" relative="1" as="geometry">
            <mxPoint x="250" y="930" as="sourcePoint" />
            <mxPoint x="300" y="880" as="targetPoint" />
          </mxGeometry>
        </mxCell>
        <mxCell id="BN82WRNj-KmG9SX7Z5Ug-62" value="" style="endArrow=none;html=1;rounded=0;entryX=0.5;entryY=0;entryDx=0;entryDy=0;exitX=0.5;exitY=1;exitDx=0;exitDy=0;" edge="1" parent="1" source="BN82WRNj-KmG9SX7Z5Ug-48" target="BN82WRNj-KmG9SX7Z5Ug-50">
          <mxGeometry width="50" height="50" relative="1" as="geometry">
            <mxPoint x="492" y="819" as="sourcePoint" />
            <mxPoint x="300" y="880" as="targetPoint" />
          </mxGeometry>
        </mxCell>
        <mxCell id="BN82WRNj-KmG9SX7Z5Ug-64" value="" style="endArrow=none;html=1;rounded=0;exitX=0;exitY=0.5;exitDx=0;exitDy=0;entryX=0.968;entryY=0.259;entryDx=0;entryDy=0;entryPerimeter=0;" edge="1" parent="1" source="BN82WRNj-KmG9SX7Z5Ug-52" target="TkY1x3k2VqDfMiU4WUwt-1">
          <mxGeometry width="50" height="50" relative="1" as="geometry">
            <mxPoint x="446" y="745" as="sourcePoint" />
            <mxPoint x="600" y="645" as="targetPoint" />
          </mxGeometry>
        </mxCell>
        <mxCell id="BN82WRNj-KmG9SX7Z5Ug-65" value="" style="endArrow=none;html=1;rounded=0;exitX=1;exitY=0.75;exitDx=0;exitDy=0;entryX=0;entryY=0;entryDx=0;entryDy=0;" edge="1" parent="1" source="TkY1x3k2VqDfMiU4WUwt-1" target="BN82WRNj-KmG9SX7Z5Ug-53">
          <mxGeometry width="50" height="50" relative="1" as="geometry">
            <mxPoint x="600" y="665" as="sourcePoint" />
            <mxPoint x="496" y="695" as="targetPoint" />
          </mxGeometry>
        </mxCell>
        <mxCell id="BN82WRNj-KmG9SX7Z5Ug-66" value="OWNS" style="shape=rhombus;perimeter=rhombusPerimeter;whiteSpace=wrap;html=1;align=center;" vertex="1" parent="1">
          <mxGeometry x="310" y="325" width="120" height="70" as="geometry" />
        </mxCell>
        <mxCell id="BN82WRNj-KmG9SX7Z5Ug-67" value="" style="endArrow=none;html=1;rounded=0;exitX=1;exitY=0.5;exitDx=0;exitDy=0;entryX=0;entryY=0.5;entryDx=0;entryDy=0;" edge="1" parent="1" source="BN82WRNj-KmG9SX7Z5Ug-1" target="BN82WRNj-KmG9SX7Z5Ug-66">
          <mxGeometry relative="1" as="geometry">
            <mxPoint x="450" y="350" as="sourcePoint" />
            <mxPoint x="319.9999999999998" y="370" as="targetPoint" />
          </mxGeometry>
        </mxCell>
        <mxCell id="5aji-TVXodm6qzS7amyw-1" value="M" style="edgeLabel;html=1;align=center;verticalAlign=middle;resizable=0;points=[];" connectable="0" vertex="1" parent="BN82WRNj-KmG9SX7Z5Ug-67">
          <mxGeometry x="0.1949" y="-10" relative="1" as="geometry">
            <mxPoint x="3" y="6" as="offset" />
          </mxGeometry>
        </mxCell>
        <mxCell id="BN82WRNj-KmG9SX7Z5Ug-69" value="" style="shape=link;html=1;rounded=0;exitX=1;exitY=0.5;exitDx=0;exitDy=0;entryX=0;entryY=0.5;entryDx=0;entryDy=0;" edge="1" parent="1" source="BN82WRNj-KmG9SX7Z5Ug-66" target="BN82WRNj-KmG9SX7Z5Ug-18">
          <mxGeometry relative="1" as="geometry">
            <mxPoint x="420" y="340" as="sourcePoint" />
            <mxPoint x="580" y="340" as="targetPoint" />
          </mxGeometry>
        </mxCell>
        <mxCell id="BN82WRNj-KmG9SX7Z5Ug-70" value="N" style="resizable=0;html=1;whiteSpace=wrap;align=right;verticalAlign=bottom;" connectable="0" vertex="1" parent="BN82WRNj-KmG9SX7Z5Ug-69">
          <mxGeometry x="1" relative="1" as="geometry">
            <mxPoint x="-50" y="30" as="offset" />
          </mxGeometry>
        </mxCell>
        <mxCell id="BN82WRNj-KmG9SX7Z5Ug-71" value="VIEWS" style="shape=rhombus;perimeter=rhombusPerimeter;whiteSpace=wrap;html=1;align=center;" vertex="1" parent="1">
          <mxGeometry x="80" y="450" width="120" height="60" as="geometry" />
        </mxCell>
        <mxCell id="BN82WRNj-KmG9SX7Z5Ug-75" value="" style="shape=link;html=1;rounded=0;exitX=0.5;exitY=1;exitDx=0;exitDy=0;entryX=0.5;entryY=0;entryDx=0;entryDy=0;" edge="1" parent="1" source="BN82WRNj-KmG9SX7Z5Ug-71" target="BN82WRNj-KmG9SX7Z5Ug-36">
          <mxGeometry relative="1" as="geometry">
            <mxPoint x="310" y="350" as="sourcePoint" />
            <mxPoint x="470" y="350" as="targetPoint" />
          </mxGeometry>
        </mxCell>
        <mxCell id="BN82WRNj-KmG9SX7Z5Ug-76" value="N" style="resizable=0;html=1;whiteSpace=wrap;align=right;verticalAlign=bottom;" connectable="0" vertex="1" parent="BN82WRNj-KmG9SX7Z5Ug-75">
          <mxGeometry x="1" relative="1" as="geometry">
            <mxPoint x="-20" y="-21" as="offset" />
          </mxGeometry>
        </mxCell>
        <mxCell id="BN82WRNj-KmG9SX7Z5Ug-77" value="" style="endArrow=none;html=1;rounded=0;exitX=0.5;exitY=1;exitDx=0;exitDy=0;entryX=0.5;entryY=0;entryDx=0;entryDy=0;" edge="1" parent="1" source="BN82WRNj-KmG9SX7Z5Ug-1" target="BN82WRNj-KmG9SX7Z5Ug-71">
          <mxGeometry relative="1" as="geometry">
            <mxPoint x="310" y="350" as="sourcePoint" />
            <mxPoint x="470" y="350" as="targetPoint" />
          </mxGeometry>
        </mxCell>
        <mxCell id="BN82WRNj-KmG9SX7Z5Ug-78" value="1" style="resizable=0;html=1;whiteSpace=wrap;align=right;verticalAlign=bottom;" connectable="0" vertex="1" parent="BN82WRNj-KmG9SX7Z5Ug-77">
          <mxGeometry x="1" relative="1" as="geometry">
            <mxPoint x="-20" as="offset" />
          </mxGeometry>
        </mxCell>
        <mxCell id="BN82WRNj-KmG9SX7Z5Ug-79" value="GENERATES" style="shape=rhombus;perimeter=rhombusPerimeter;whiteSpace=wrap;html=1;align=center;" vertex="1" parent="1">
          <mxGeometry x="720" y="390" width="120" height="60" as="geometry" />
        </mxCell>
        <mxCell id="BN82WRNj-KmG9SX7Z5Ug-80" value="" style="shape=link;html=1;rounded=0;exitX=0.5;exitY=0;exitDx=0;exitDy=0;entryX=1;entryY=1;entryDx=0;entryDy=0;" edge="1" parent="1" source="BN82WRNj-KmG9SX7Z5Ug-27" target="BN82WRNj-KmG9SX7Z5Ug-79">
          <mxGeometry relative="1" as="geometry">
            <mxPoint x="380" y="530" as="sourcePoint" />
            <mxPoint x="540" y="530" as="targetPoint" />
          </mxGeometry>
        </mxCell>
        <mxCell id="BN82WRNj-KmG9SX7Z5Ug-81" value="N" style="resizable=0;html=1;whiteSpace=wrap;align=right;verticalAlign=bottom;" connectable="0" vertex="1" parent="BN82WRNj-KmG9SX7Z5Ug-80">
          <mxGeometry x="1" relative="1" as="geometry">
            <mxPoint x="-80" y="105" as="offset" />
          </mxGeometry>
        </mxCell>
        <mxCell id="BN82WRNj-KmG9SX7Z5Ug-82" value="" style="endArrow=none;html=1;rounded=0;entryX=0;entryY=0;entryDx=0;entryDy=0;exitX=1;exitY=0.5;exitDx=0;exitDy=0;" edge="1" parent="1" source="BN82WRNj-KmG9SX7Z5Ug-18" target="BN82WRNj-KmG9SX7Z5Ug-79">
          <mxGeometry relative="1" as="geometry">
            <mxPoint x="590" y="400" as="sourcePoint" />
            <mxPoint x="540" y="530" as="targetPoint" />
          </mxGeometry>
        </mxCell>
        <mxCell id="BN82WRNj-KmG9SX7Z5Ug-83" value="1" style="resizable=0;html=1;whiteSpace=wrap;align=right;verticalAlign=bottom;" connectable="0" vertex="1" parent="BN82WRNj-KmG9SX7Z5Ug-82">
          <mxGeometry x="1" relative="1" as="geometry">
            <mxPoint y="-20" as="offset" />
          </mxGeometry>
        </mxCell>
        <mxCell id="BN82WRNj-KmG9SX7Z5Ug-84" value="HAS" style="shape=rhombus;double=1;perimeter=rhombusPerimeter;whiteSpace=wrap;html=1;align=center;" vertex="1" parent="1">
          <mxGeometry x="516" y="470" width="120" height="60" as="geometry" />
        </mxCell>
        <mxCell id="BN82WRNj-KmG9SX7Z5Ug-85" value="" style="shape=link;html=1;rounded=0;exitX=0.5;exitY=1;exitDx=0;exitDy=0;entryX=0.5;entryY=0;entryDx=0;entryDy=0;" edge="1" parent="1" source="BN82WRNj-KmG9SX7Z5Ug-84" target="TkY1x3k2VqDfMiU4WUwt-1">
          <mxGeometry relative="1" as="geometry">
            <mxPoint x="426" y="705" as="sourcePoint" />
            <mxPoint x="530" y="625" as="targetPoint" />
          </mxGeometry>
        </mxCell>
        <mxCell id="BN82WRNj-KmG9SX7Z5Ug-86" value="N" style="resizable=0;html=1;whiteSpace=wrap;align=right;verticalAlign=bottom;" connectable="0" vertex="1" parent="BN82WRNj-KmG9SX7Z5Ug-85">
          <mxGeometry x="1" relative="1" as="geometry">
            <mxPoint y="-56" as="offset" />
          </mxGeometry>
        </mxCell>
        <mxCell id="BN82WRNj-KmG9SX7Z5Ug-87" value="" style="endArrow=none;html=1;rounded=0;exitX=0.25;exitY=1;exitDx=0;exitDy=0;entryX=0.5;entryY=0;entryDx=0;entryDy=0;" edge="1" parent="1" source="BN82WRNj-KmG9SX7Z5Ug-18" target="BN82WRNj-KmG9SX7Z5Ug-84">
          <mxGeometry relative="1" as="geometry">
            <mxPoint x="720" y="530" as="sourcePoint" />
            <mxPoint x="880" y="530" as="targetPoint" />
          </mxGeometry>
        </mxCell>
        <mxCell id="BN82WRNj-KmG9SX7Z5Ug-88" value="1" style="resizable=0;html=1;whiteSpace=wrap;align=right;verticalAlign=bottom;" connectable="0" vertex="1" parent="BN82WRNj-KmG9SX7Z5Ug-87">
          <mxGeometry x="1" relative="1" as="geometry">
            <mxPoint x="10" y="-10" as="offset" />
          </mxGeometry>
        </mxCell>
        <mxCell id="9bql0YCpWde-p3deVTsX-2" value="" style="endArrow=none;html=1;rounded=0;entryX=1;entryY=0.5;entryDx=0;entryDy=0;exitX=0;exitY=0.5;exitDx=0;exitDy=0;" edge="1" parent="1" source="BN82WRNj-KmG9SX7Z5Ug-27" target="BN82WRNj-KmG9SX7Z5Ug-84">
          <mxGeometry relative="1" as="geometry">
            <mxPoint x="510" y="480" as="sourcePoint" />
            <mxPoint x="670" y="480" as="targetPoint" />
          </mxGeometry>
        </mxCell>
        <mxCell id="9bql0YCpWde-p3deVTsX-3" value="N" style="resizable=0;html=1;whiteSpace=wrap;align=right;verticalAlign=bottom;" connectable="0" vertex="1" parent="9bql0YCpWde-p3deVTsX-2">
          <mxGeometry x="1" relative="1" as="geometry">
            <mxPoint x="244" y="-50" as="offset" />
          </mxGeometry>
        </mxCell>
        <mxCell id="5aji-TVXodm6qzS7amyw-3" style="edgeStyle=orthogonalEdgeStyle;rounded=0;orthogonalLoop=1;jettySize=auto;html=1;exitX=0.5;exitY=1;exitDx=0;exitDy=0;" edge="1" parent="1" source="BN82WRNj-KmG9SX7Z5Ug-50" target="BN82WRNj-KmG9SX7Z5Ug-50">
          <mxGeometry relative="1" as="geometry" />
        </mxCell>
        <mxCell id="5aji-TVXodm6qzS7amyw-4" value="" style="endArrow=none;html=1;rounded=0;exitX=1;exitY=1;exitDx=0;exitDy=0;entryX=0;entryY=0.5;entryDx=0;entryDy=0;" edge="1" parent="1" source="BN82WRNj-KmG9SX7Z5Ug-1" target="BN82WRNj-KmG9SX7Z5Ug-84">
          <mxGeometry relative="1" as="geometry">
            <mxPoint x="510" y="580" as="sourcePoint" />
            <mxPoint x="670" y="580" as="targetPoint" />
          </mxGeometry>
        </mxCell>
        <mxCell id="5aji-TVXodm6qzS7amyw-5" value="1" style="resizable=0;html=1;whiteSpace=wrap;align=right;verticalAlign=bottom;" connectable="0" vertex="1" parent="5aji-TVXodm6qzS7amyw-4">
          <mxGeometry x="1" relative="1" as="geometry">
            <mxPoint x="-145" y="-10" as="offset" />
          </mxGeometry>
        </mxCell>
        <mxCell id="TkY1x3k2VqDfMiU4WUwt-1" value="SCHEDULE_SETTING" style="whiteSpace=wrap;html=1;align=center;" vertex="1" parent="1">
          <mxGeometry x="450" y="626.87" width="155" height="70" as="geometry" />
        </mxCell>
      </root>
    </mxGraphModel>
  </diagram>
  <diagram id="AZr4DvgQiNVJDK9zrUhn" name="Relational Schema">
    <mxGraphModel grid="1" page="1" gridSize="12" guides="1" tooltips="1" connect="1" arrows="1" fold="1" pageScale="1" pageWidth="827" pageHeight="1169" math="0" shadow="0">
      <root>
        <mxCell id="0" />
        <mxCell id="1" parent="0" />
        <mxCell id="IMrcSO9J0U59UtIUiwi_-28" value="" style="shape=table;startSize=0;container=1;collapsible=0;childLayout=tableLayout;" vertex="1" parent="1">
          <mxGeometry x="146" y="468" width="616" height="36" as="geometry" />
        </mxCell>
        <mxCell id="IMrcSO9J0U59UtIUiwi_-29" value="" style="shape=tableRow;horizontal=0;startSize=0;swimlaneHead=0;swimlaneBody=0;strokeColor=inherit;top=0;left=0;bottom=0;right=0;collapsible=0;dropTarget=0;fillColor=none;points=[[0,0.5],[1,0.5]];portConstraint=eastwest;" vertex="1" parent="IMrcSO9J0U59UtIUiwi_-28">
          <mxGeometry width="616" height="36" as="geometry" />
        </mxCell>
        <mxCell id="IMrcSO9J0U59UtIUiwi_-30" value="ScheduleSettingID" style="shape=partialRectangle;html=1;whiteSpace=wrap;connectable=0;strokeColor=inherit;overflow=hidden;fillColor=none;top=0;left=0;bottom=0;right=0;pointerEvents=1;" vertex="1" parent="IMrcSO9J0U59UtIUiwi_-29">
          <mxGeometry width="148" height="36" as="geometry">
            <mxRectangle width="148" height="36" as="alternateBounds" />
          </mxGeometry>
        </mxCell>
        <mxCell id="IMrcSO9J0U59UtIUiwi_-31" value="StartTime" style="shape=partialRectangle;html=1;whiteSpace=wrap;connectable=0;strokeColor=inherit;overflow=hidden;fillColor=none;top=0;left=0;bottom=0;right=0;pointerEvents=1;" vertex="1" parent="IMrcSO9J0U59UtIUiwi_-29">
          <mxGeometry x="148" width="108" height="36" as="geometry">
            <mxRectangle width="108" height="36" as="alternateBounds" />
          </mxGeometry>
        </mxCell>
        <mxCell id="IMrcSO9J0U59UtIUiwi_-32" value="EndTime" style="shape=partialRectangle;html=1;whiteSpace=wrap;connectable=0;strokeColor=inherit;overflow=hidden;fillColor=none;top=0;left=0;bottom=0;right=0;pointerEvents=1;" vertex="1" parent="IMrcSO9J0U59UtIUiwi_-29">
          <mxGeometry x="256" width="96" height="36" as="geometry">
            <mxRectangle width="96" height="36" as="alternateBounds" />
          </mxGeometry>
        </mxCell>
        <mxCell id="IMrcSO9J0U59UtIUiwi_-34" value="Recurrence" style="shape=partialRectangle;html=1;whiteSpace=wrap;connectable=0;strokeColor=inherit;overflow=hidden;fillColor=none;top=0;left=0;bottom=0;right=0;pointerEvents=1;" vertex="1" parent="IMrcSO9J0U59UtIUiwi_-29">
          <mxGeometry x="352" width="132" height="36" as="geometry">
            <mxRectangle width="132" height="36" as="alternateBounds" />
          </mxGeometry>
        </mxCell>
        <mxCell id="IMrcSO9J0U59UtIUiwi_-38" value="Description" style="shape=partialRectangle;html=1;whiteSpace=wrap;connectable=0;strokeColor=inherit;overflow=hidden;fillColor=none;top=0;left=0;bottom=0;right=0;pointerEvents=1;" vertex="1" parent="IMrcSO9J0U59UtIUiwi_-29">
          <mxGeometry x="484" width="132" height="36" as="geometry">
            <mxRectangle width="132" height="36" as="alternateBounds" />
          </mxGeometry>
        </mxCell>
        <mxCell id="fm04QgTXL7wbrk_kWz1A-14" value="" style="shape=table;startSize=0;container=1;collapsible=0;childLayout=tableLayout;" vertex="1" parent="1">
          <mxGeometry x="146" y="80" width="403" height="40" as="geometry" />
        </mxCell>
        <mxCell id="fm04QgTXL7wbrk_kWz1A-15" value="" style="shape=tableRow;horizontal=0;startSize=0;swimlaneHead=0;swimlaneBody=0;strokeColor=inherit;top=0;left=0;bottom=0;right=0;collapsible=0;dropTarget=0;fillColor=none;points=[[0,0.5],[1,0.5]];portConstraint=eastwest;" vertex="1" parent="fm04QgTXL7wbrk_kWz1A-14">
          <mxGeometry width="403" height="40" as="geometry" />
        </mxCell>
        <mxCell id="fm04QgTXL7wbrk_kWz1A-16" value="&lt;u&gt;UserID&lt;/u&gt;" style="shape=partialRectangle;html=1;whiteSpace=wrap;connectable=0;strokeColor=inherit;overflow=hidden;fillColor=none;top=0;left=0;bottom=0;right=0;pointerEvents=1;" vertex="1" parent="fm04QgTXL7wbrk_kWz1A-15">
          <mxGeometry width="67" height="40" as="geometry">
            <mxRectangle width="67" height="40" as="alternateBounds" />
          </mxGeometry>
        </mxCell>
        <mxCell id="fm04QgTXL7wbrk_kWz1A-17" value="UserName" style="shape=partialRectangle;html=1;whiteSpace=wrap;connectable=0;strokeColor=inherit;overflow=hidden;fillColor=none;top=0;left=0;bottom=0;right=0;pointerEvents=1;" vertex="1" parent="fm04QgTXL7wbrk_kWz1A-15">
          <mxGeometry x="67" width="78" height="40" as="geometry">
            <mxRectangle width="78" height="40" as="alternateBounds" />
          </mxGeometry>
        </mxCell>
        <mxCell id="fm04QgTXL7wbrk_kWz1A-18" value="Password" style="shape=partialRectangle;html=1;whiteSpace=wrap;connectable=0;strokeColor=inherit;overflow=hidden;fillColor=none;top=0;left=0;bottom=0;right=0;pointerEvents=1;" vertex="1" parent="fm04QgTXL7wbrk_kWz1A-15">
          <mxGeometry x="145" width="79" height="40" as="geometry">
            <mxRectangle width="79" height="40" as="alternateBounds" />
          </mxGeometry>
        </mxCell>
        <mxCell id="fm04QgTXL7wbrk_kWz1A-19" value="Email" style="shape=partialRectangle;html=1;whiteSpace=wrap;connectable=0;strokeColor=inherit;overflow=hidden;fillColor=none;top=0;left=0;bottom=0;right=0;pointerEvents=1;" vertex="1" parent="fm04QgTXL7wbrk_kWz1A-15">
          <mxGeometry x="224" width="56" height="40" as="geometry">
            <mxRectangle width="56" height="40" as="alternateBounds" />
          </mxGeometry>
        </mxCell>
        <mxCell id="fm04QgTXL7wbrk_kWz1A-20" value="Fname" style="shape=partialRectangle;html=1;whiteSpace=wrap;connectable=0;strokeColor=inherit;overflow=hidden;fillColor=none;top=0;left=0;bottom=0;right=0;pointerEvents=1;" vertex="1" parent="fm04QgTXL7wbrk_kWz1A-15">
          <mxGeometry x="280" width="60" height="40" as="geometry">
            <mxRectangle width="60" height="40" as="alternateBounds" />
          </mxGeometry>
        </mxCell>
        <mxCell id="fm04QgTXL7wbrk_kWz1A-21" value="Lname" style="shape=partialRectangle;html=1;whiteSpace=wrap;connectable=0;strokeColor=inherit;overflow=hidden;fillColor=none;top=0;left=0;bottom=0;right=0;pointerEvents=1;" vertex="1" parent="fm04QgTXL7wbrk_kWz1A-15">
          <mxGeometry x="340" width="63" height="40" as="geometry">
            <mxRectangle width="63" height="40" as="alternateBounds" />
          </mxGeometry>
        </mxCell>
        <mxCell id="fm04QgTXL7wbrk_kWz1A-23" value="&lt;b&gt;&lt;font style=&quot;font-size: 15px;&quot;&gt;USER&lt;/font&gt;&lt;/b&gt;" style="text;html=1;align=center;verticalAlign=middle;resizable=0;points=[];autosize=1;strokeColor=none;fillColor=none;" vertex="1" parent="1">
          <mxGeometry x="146" y="50" width="70" height="30" as="geometry" />
        </mxCell>
        <mxCell id="IMrcSO9J0U59UtIUiwi_-3" value="" style="shape=table;startSize=0;container=1;collapsible=0;childLayout=tableLayout;" vertex="1" parent="1">
          <mxGeometry x="146" y="180" width="268" height="40" as="geometry" />
        </mxCell>
        <mxCell id="IMrcSO9J0U59UtIUiwi_-4" value="" style="shape=tableRow;horizontal=0;startSize=0;swimlaneHead=0;swimlaneBody=0;strokeColor=inherit;top=0;left=0;bottom=0;right=0;collapsible=0;dropTarget=0;fillColor=none;points=[[0,0.5],[1,0.5]];portConstraint=eastwest;" vertex="1" parent="IMrcSO9J0U59UtIUiwi_-3">
          <mxGeometry width="268" height="40" as="geometry" />
        </mxCell>
        <mxCell id="IMrcSO9J0U59UtIUiwi_-5" value="&lt;u&gt;LogID&lt;/u&gt;" style="shape=partialRectangle;html=1;whiteSpace=wrap;connectable=0;strokeColor=inherit;overflow=hidden;fillColor=none;top=0;left=0;bottom=0;right=0;pointerEvents=1;" vertex="1" parent="IMrcSO9J0U59UtIUiwi_-4">
          <mxGeometry width="60" height="40" as="geometry">
            <mxRectangle width="60" height="40" as="alternateBounds" />
          </mxGeometry>
        </mxCell>
        <mxCell id="IMrcSO9J0U59UtIUiwi_-6" value="TimeStamp" style="shape=partialRectangle;html=1;whiteSpace=wrap;connectable=0;strokeColor=inherit;overflow=hidden;fillColor=none;top=0;left=0;bottom=0;right=0;pointerEvents=1;" vertex="1" parent="IMrcSO9J0U59UtIUiwi_-4">
          <mxGeometry x="60" width="88" height="40" as="geometry">
            <mxRectangle width="88" height="40" as="alternateBounds" />
          </mxGeometry>
        </mxCell>
        <mxCell id="IMrcSO9J0U59UtIUiwi_-7" value="Action" style="shape=partialRectangle;html=1;whiteSpace=wrap;connectable=0;strokeColor=inherit;overflow=hidden;fillColor=none;top=0;left=0;bottom=0;right=0;pointerEvents=1;" vertex="1" parent="IMrcSO9J0U59UtIUiwi_-4">
          <mxGeometry x="148" width="60" height="40" as="geometry">
            <mxRectangle width="60" height="40" as="alternateBounds" />
          </mxGeometry>
        </mxCell>
        <mxCell id="IMrcSO9J0U59UtIUiwi_-8" value="UID" style="shape=partialRectangle;html=1;whiteSpace=wrap;connectable=0;strokeColor=inherit;overflow=hidden;fillColor=none;top=0;left=0;bottom=0;right=0;pointerEvents=1;" vertex="1" parent="IMrcSO9J0U59UtIUiwi_-4">
          <mxGeometry x="208" width="60" height="40" as="geometry">
            <mxRectangle width="60" height="40" as="alternateBounds" />
          </mxGeometry>
        </mxCell>
        <mxCell id="IMrcSO9J0U59UtIUiwi_-10" value="&lt;b&gt;&lt;font style=&quot;font-size: 15px;&quot;&gt;ACTIVITY_LOG&lt;/font&gt;&lt;/b&gt;" style="text;html=1;align=center;verticalAlign=middle;resizable=0;points=[];autosize=1;strokeColor=none;fillColor=none;" vertex="1" parent="1">
          <mxGeometry x="146" y="144" width="132" height="36" as="geometry" />
        </mxCell>
        <mxCell id="IMrcSO9J0U59UtIUiwi_-11" value="" style="shape=table;startSize=0;container=1;collapsible=0;childLayout=tableLayout;" vertex="1" parent="1">
          <mxGeometry x="146" y="276" width="244" height="40" as="geometry" />
        </mxCell>
        <mxCell id="IMrcSO9J0U59UtIUiwi_-12" value="" style="shape=tableRow;horizontal=0;startSize=0;swimlaneHead=0;swimlaneBody=0;strokeColor=inherit;top=0;left=0;bottom=0;right=0;collapsible=0;dropTarget=0;fillColor=none;points=[[0,0.5],[1,0.5]];portConstraint=eastwest;" vertex="1" parent="IMrcSO9J0U59UtIUiwi_-11">
          <mxGeometry width="244" height="40" as="geometry" />
        </mxCell>
        <mxCell id="IMrcSO9J0U59UtIUiwi_-13" value="&lt;u&gt;DeviceID&lt;/u&gt;" style="shape=partialRectangle;html=1;whiteSpace=wrap;connectable=0;strokeColor=inherit;overflow=hidden;fillColor=none;top=0;left=0;bottom=0;right=0;pointerEvents=1;" vertex="1" parent="IMrcSO9J0U59UtIUiwi_-12">
          <mxGeometry width="64" height="40" as="geometry">
            <mxRectangle width="64" height="40" as="alternateBounds" />
          </mxGeometry>
        </mxCell>
        <mxCell id="IMrcSO9J0U59UtIUiwi_-14" value="Name" style="shape=partialRectangle;html=1;whiteSpace=wrap;connectable=0;strokeColor=inherit;overflow=hidden;fillColor=none;top=0;left=0;bottom=0;right=0;pointerEvents=1;" vertex="1" parent="IMrcSO9J0U59UtIUiwi_-12">
          <mxGeometry x="64" width="60" height="40" as="geometry">
            <mxRectangle width="60" height="40" as="alternateBounds" />
          </mxGeometry>
        </mxCell>
        <mxCell id="IMrcSO9J0U59UtIUiwi_-15" value="Location" style="shape=partialRectangle;html=1;whiteSpace=wrap;connectable=0;strokeColor=inherit;overflow=hidden;fillColor=none;top=0;left=0;bottom=0;right=0;pointerEvents=1;" vertex="1" parent="IMrcSO9J0U59UtIUiwi_-12">
          <mxGeometry x="124" width="72" height="40" as="geometry">
            <mxRectangle width="72" height="40" as="alternateBounds" />
          </mxGeometry>
        </mxCell>
        <mxCell id="IMrcSO9J0U59UtIUiwi_-16" value="Type" style="shape=partialRectangle;html=1;whiteSpace=wrap;connectable=0;strokeColor=inherit;overflow=hidden;fillColor=none;top=0;left=0;bottom=0;right=0;pointerEvents=1;" vertex="1" parent="IMrcSO9J0U59UtIUiwi_-12">
          <mxGeometry x="196" width="48" height="40" as="geometry">
            <mxRectangle width="48" height="40" as="alternateBounds" />
          </mxGeometry>
        </mxCell>
        <mxCell id="IMrcSO9J0U59UtIUiwi_-19" value="&lt;b&gt;&lt;font style=&quot;font-size: 15px;&quot;&gt;DEVICE&lt;/font&gt;&lt;/b&gt;" style="text;html=1;align=center;verticalAlign=middle;resizable=0;points=[];autosize=1;strokeColor=none;fillColor=none;" vertex="1" parent="1">
          <mxGeometry x="146" y="240" width="84" height="36" as="geometry" />
        </mxCell>
        <mxCell id="IMrcSO9J0U59UtIUiwi_-20" value="" style="shape=table;startSize=0;container=1;collapsible=0;childLayout=tableLayout;" vertex="1" parent="1">
          <mxGeometry x="146" y="372" width="448" height="40" as="geometry" />
        </mxCell>
        <mxCell id="IMrcSO9J0U59UtIUiwi_-21" value="" style="shape=tableRow;horizontal=0;startSize=0;swimlaneHead=0;swimlaneBody=0;strokeColor=inherit;top=0;left=0;bottom=0;right=0;collapsible=0;dropTarget=0;fillColor=none;points=[[0,0.5],[1,0.5]];portConstraint=eastwest;" vertex="1" parent="IMrcSO9J0U59UtIUiwi_-20">
          <mxGeometry width="448" height="40" as="geometry" />
        </mxCell>
        <mxCell id="IMrcSO9J0U59UtIUiwi_-22" value="&lt;u&gt;SensorDataID&lt;/u&gt;" style="shape=partialRectangle;html=1;whiteSpace=wrap;connectable=0;strokeColor=inherit;overflow=hidden;fillColor=none;top=0;left=0;bottom=0;right=0;pointerEvents=1;" vertex="1" parent="IMrcSO9J0U59UtIUiwi_-21">
          <mxGeometry width="112" height="40" as="geometry">
            <mxRectangle width="112" height="40" as="alternateBounds" />
          </mxGeometry>
        </mxCell>
        <mxCell id="IMrcSO9J0U59UtIUiwi_-23" value="TimeStamp" style="shape=partialRectangle;html=1;whiteSpace=wrap;connectable=0;strokeColor=inherit;overflow=hidden;fillColor=none;top=0;left=0;bottom=0;right=0;pointerEvents=1;" vertex="1" parent="IMrcSO9J0U59UtIUiwi_-21">
          <mxGeometry x="112" width="96" height="40" as="geometry">
            <mxRectangle width="96" height="40" as="alternateBounds" />
          </mxGeometry>
        </mxCell>
        <mxCell id="IMrcSO9J0U59UtIUiwi_-24" value="DataName" style="shape=partialRectangle;html=1;whiteSpace=wrap;connectable=0;strokeColor=inherit;overflow=hidden;fillColor=none;top=0;left=0;bottom=0;right=0;pointerEvents=1;" vertex="1" parent="IMrcSO9J0U59UtIUiwi_-21">
          <mxGeometry x="208" width="84" height="40" as="geometry">
            <mxRectangle width="84" height="40" as="alternateBounds" />
          </mxGeometry>
        </mxCell>
        <mxCell id="IMrcSO9J0U59UtIUiwi_-25" value="Value" style="shape=partialRectangle;html=1;whiteSpace=wrap;connectable=0;strokeColor=inherit;overflow=hidden;fillColor=none;top=0;left=0;bottom=0;right=0;pointerEvents=1;" vertex="1" parent="IMrcSO9J0U59UtIUiwi_-21">
          <mxGeometry x="292" width="66" height="40" as="geometry">
            <mxRectangle width="66" height="40" as="alternateBounds" />
          </mxGeometry>
        </mxCell>
        <mxCell id="IMrcSO9J0U59UtIUiwi_-26" value="DID" style="shape=partialRectangle;html=1;whiteSpace=wrap;connectable=0;strokeColor=inherit;overflow=hidden;fillColor=none;top=0;left=0;bottom=0;right=0;pointerEvents=1;" vertex="1" parent="IMrcSO9J0U59UtIUiwi_-21">
          <mxGeometry x="358" width="90" height="40" as="geometry">
            <mxRectangle width="90" height="40" as="alternateBounds" />
          </mxGeometry>
        </mxCell>
        <mxCell id="IMrcSO9J0U59UtIUiwi_-27" value="&lt;b&gt;&lt;font style=&quot;font-size: 15px;&quot;&gt;SENSOR_DATA&lt;/font&gt;&lt;/b&gt;" style="text;html=1;align=center;verticalAlign=middle;resizable=0;points=[];autosize=1;strokeColor=none;fillColor=none;" vertex="1" parent="1">
          <mxGeometry x="146" y="336" width="132" height="36" as="geometry" />
        </mxCell>
        <mxCell id="IMrcSO9J0U59UtIUiwi_-35" value="&lt;b&gt;&lt;font style=&quot;font-size: 15px;&quot;&gt;SCHEDULE_SETTING&lt;/font&gt;&lt;/b&gt;" style="text;html=1;align=center;verticalAlign=middle;resizable=0;points=[];autosize=1;strokeColor=none;fillColor=none;" vertex="1" parent="1">
          <mxGeometry x="146" y="432" width="180" height="36" as="geometry" />
        </mxCell>
        <mxCell id="gylVz2D07vP_Q_JhkcIq-11" value="" style="shape=table;startSize=0;container=1;collapsible=0;childLayout=tableLayout;" vertex="1" parent="1">
          <mxGeometry x="146" y="576" width="120" height="40" as="geometry" />
        </mxCell>
        <mxCell id="gylVz2D07vP_Q_JhkcIq-12" value="" style="shape=tableRow;horizontal=0;startSize=0;swimlaneHead=0;swimlaneBody=0;strokeColor=inherit;top=0;left=0;bottom=0;right=0;collapsible=0;dropTarget=0;fillColor=none;points=[[0,0.5],[1,0.5]];portConstraint=eastwest;" vertex="1" parent="gylVz2D07vP_Q_JhkcIq-11">
          <mxGeometry width="120" height="40" as="geometry" />
        </mxCell>
        <mxCell id="gylVz2D07vP_Q_JhkcIq-13" value="UID" style="shape=partialRectangle;html=1;whiteSpace=wrap;connectable=0;strokeColor=inherit;overflow=hidden;fillColor=none;top=0;left=0;bottom=0;right=0;pointerEvents=1;" vertex="1" parent="gylVz2D07vP_Q_JhkcIq-12">
          <mxGeometry width="64" height="40" as="geometry">
            <mxRectangle width="64" height="40" as="alternateBounds" />
          </mxGeometry>
        </mxCell>
        <mxCell id="gylVz2D07vP_Q_JhkcIq-14" value="DID" style="shape=partialRectangle;html=1;whiteSpace=wrap;connectable=0;strokeColor=inherit;overflow=hidden;fillColor=none;top=0;left=0;bottom=0;right=0;pointerEvents=1;" vertex="1" parent="gylVz2D07vP_Q_JhkcIq-12">
          <mxGeometry x="64" width="56" height="40" as="geometry">
            <mxRectangle width="56" height="40" as="alternateBounds" />
          </mxGeometry>
        </mxCell>
        <mxCell id="gylVz2D07vP_Q_JhkcIq-15" value="&lt;b&gt;&lt;font style=&quot;font-size: 15px;&quot;&gt;OWNS&lt;/font&gt;&lt;/b&gt;" style="text;html=1;align=center;verticalAlign=middle;resizable=0;points=[];autosize=1;strokeColor=none;fillColor=none;" vertex="1" parent="1">
          <mxGeometry x="146" y="528" width="72" height="36" as="geometry" />
        </mxCell>
        <mxCell id="gylVz2D07vP_Q_JhkcIq-16" value="" style="endArrow=classic;html=1;rounded=0;entryX=0;entryY=0.5;entryDx=0;entryDy=0;exitX=0;exitY=0.5;exitDx=0;exitDy=0;" edge="1" parent="1" source="gylVz2D07vP_Q_JhkcIq-12" target="fm04QgTXL7wbrk_kWz1A-15">
          <mxGeometry width="50" height="50" relative="1" as="geometry">
            <mxPoint x="342" y="206" as="sourcePoint" />
            <mxPoint x="392" y="156" as="targetPoint" />
            <Array as="points">
              <mxPoint x="126" y="596" />
              <mxPoint x="126" y="100" />
            </Array>
          </mxGeometry>
        </mxCell>
        <mxCell id="gylVz2D07vP_Q_JhkcIq-17" value="" style="endArrow=classic;html=1;rounded=0;entryX=0;entryY=0.5;entryDx=0;entryDy=0;exitX=0.751;exitY=0.967;exitDx=0;exitDy=0;exitPerimeter=0;" edge="1" parent="1" source="gylVz2D07vP_Q_JhkcIq-12" target="IMrcSO9J0U59UtIUiwi_-12">
          <mxGeometry width="50" height="50" relative="1" as="geometry">
            <mxPoint x="330" y="434" as="sourcePoint" />
            <mxPoint x="380" y="384" as="targetPoint" />
            <Array as="points">
              <mxPoint x="236" y="636" />
              <mxPoint x="102" y="636" />
              <mxPoint x="102" y="296" />
            </Array>
          </mxGeometry>
        </mxCell>
        <mxCell id="gylVz2D07vP_Q_JhkcIq-18" value="" style="endArrow=none;html=1;rounded=0;strokeWidth=0.5;" edge="1" parent="1">
          <mxGeometry width="50" height="50" relative="1" as="geometry">
            <mxPoint x="162" y="600" as="sourcePoint" />
            <mxPoint x="246" y="600" as="targetPoint" />
          </mxGeometry>
        </mxCell>
        <mxCell id="C9Ks6f-5p77fA3nQ9G0u-1" value="" style="shape=table;startSize=0;container=1;collapsible=0;childLayout=tableLayout;" vertex="1" parent="1">
          <mxGeometry x="146" y="708" width="376" height="40" as="geometry" />
        </mxCell>
        <mxCell id="C9Ks6f-5p77fA3nQ9G0u-2" value="" style="shape=tableRow;horizontal=0;startSize=0;swimlaneHead=0;swimlaneBody=0;strokeColor=inherit;top=0;left=0;bottom=0;right=0;collapsible=0;dropTarget=0;fillColor=none;points=[[0,0.5],[1,0.5]];portConstraint=eastwest;" vertex="1" parent="C9Ks6f-5p77fA3nQ9G0u-1">
          <mxGeometry width="376" height="40" as="geometry" />
        </mxCell>
        <mxCell id="C9Ks6f-5p77fA3nQ9G0u-3" value="SSID" style="shape=partialRectangle;html=1;whiteSpace=wrap;connectable=0;strokeColor=inherit;overflow=hidden;fillColor=none;top=0;left=0;bottom=0;right=0;pointerEvents=1;" vertex="1" parent="C9Ks6f-5p77fA3nQ9G0u-2">
          <mxGeometry width="94" height="40" as="geometry">
            <mxRectangle width="94" height="40" as="alternateBounds" />
          </mxGeometry>
        </mxCell>
        <mxCell id="C9Ks6f-5p77fA3nQ9G0u-4" value="SDID" style="shape=partialRectangle;html=1;whiteSpace=wrap;connectable=0;strokeColor=inherit;overflow=hidden;fillColor=none;top=0;left=0;bottom=0;right=0;pointerEvents=1;" vertex="1" parent="C9Ks6f-5p77fA3nQ9G0u-2">
          <mxGeometry x="94" width="81" height="40" as="geometry">
            <mxRectangle width="81" height="40" as="alternateBounds" />
          </mxGeometry>
        </mxCell>
        <mxCell id="C9Ks6f-5p77fA3nQ9G0u-5" value="DID" style="shape=partialRectangle;html=1;whiteSpace=wrap;connectable=0;strokeColor=inherit;overflow=hidden;fillColor=none;top=0;left=0;bottom=0;right=0;pointerEvents=1;" vertex="1" parent="C9Ks6f-5p77fA3nQ9G0u-2">
          <mxGeometry x="175" width="107" height="40" as="geometry">
            <mxRectangle width="107" height="40" as="alternateBounds" />
          </mxGeometry>
        </mxCell>
        <mxCell id="C9Ks6f-5p77fA3nQ9G0u-6" value="UID" style="shape=partialRectangle;html=1;whiteSpace=wrap;connectable=0;strokeColor=inherit;overflow=hidden;fillColor=none;top=0;left=0;bottom=0;right=0;pointerEvents=1;" vertex="1" parent="C9Ks6f-5p77fA3nQ9G0u-2">
          <mxGeometry x="282" width="94" height="40" as="geometry">
            <mxRectangle width="94" height="40" as="alternateBounds" />
          </mxGeometry>
        </mxCell>
        <mxCell id="C9Ks6f-5p77fA3nQ9G0u-7" value="&lt;b&gt;&lt;font style=&quot;font-size: 15px;&quot;&gt;HAS_SCHEDULE&lt;/font&gt;&lt;/b&gt;" style="text;html=1;align=center;verticalAlign=middle;resizable=0;points=[];autosize=1;strokeColor=none;fillColor=none;" vertex="1" parent="1">
          <mxGeometry x="146" y="672" width="144" height="36" as="geometry" />
        </mxCell>
        <mxCell id="W5SdmXnv5iaujKPlNyj2-1" value="" style="endArrow=classic;html=1;rounded=0;entryX=0.073;entryY=1.011;entryDx=0;entryDy=0;entryPerimeter=0;exitX=0.889;exitY=-0.004;exitDx=0;exitDy=0;exitPerimeter=0;" edge="1" parent="1" source="IMrcSO9J0U59UtIUiwi_-4" target="fm04QgTXL7wbrk_kWz1A-15">
          <mxGeometry width="50" height="50" relative="1" as="geometry">
            <mxPoint x="522" y="314" as="sourcePoint" />
            <mxPoint x="572" y="264" as="targetPoint" />
            <Array as="points">
              <mxPoint x="384" y="144" />
              <mxPoint x="175" y="144" />
            </Array>
          </mxGeometry>
        </mxCell>
        <mxCell id="eEBUHLeXUXcFvTdGf6eq-1" value="" style="endArrow=classic;html=1;rounded=0;entryX=0.133;entryY=1.025;entryDx=0;entryDy=0;entryPerimeter=0;exitX=0.894;exitY=0.015;exitDx=0;exitDy=0;exitPerimeter=0;" edge="1" parent="1" source="IMrcSO9J0U59UtIUiwi_-21" target="IMrcSO9J0U59UtIUiwi_-12">
          <mxGeometry width="50" height="50" relative="1" as="geometry">
            <mxPoint x="522" y="494" as="sourcePoint" />
            <mxPoint x="572" y="444" as="targetPoint" />
            <Array as="points">
              <mxPoint x="546" y="336" />
              <mxPoint x="178" y="336" />
            </Array>
          </mxGeometry>
        </mxCell>
        <mxCell id="eEBUHLeXUXcFvTdGf6eq-2" value="" style="endArrow=classic;html=1;rounded=0;entryX=0;entryY=0.5;entryDx=0;entryDy=0;exitX=0;exitY=0.5;exitDx=0;exitDy=0;" edge="1" parent="1" source="C9Ks6f-5p77fA3nQ9G0u-2" target="IMrcSO9J0U59UtIUiwi_-29">
          <mxGeometry width="50" height="50" relative="1" as="geometry">
            <mxPoint x="522" y="662" as="sourcePoint" />
            <mxPoint x="572" y="612" as="targetPoint" />
            <Array as="points">
              <mxPoint x="78" y="728" />
              <mxPoint x="78" y="486" />
            </Array>
          </mxGeometry>
        </mxCell>
        <mxCell id="eEBUHLeXUXcFvTdGf6eq-3" value="" style="endArrow=none;html=1;rounded=0;strokeWidth=0.5;" edge="1" parent="1">
          <mxGeometry width="50" height="50" relative="1" as="geometry">
            <mxPoint x="174" y="732" as="sourcePoint" />
            <mxPoint x="294" y="732" as="targetPoint" />
          </mxGeometry>
        </mxCell>
        <mxCell id="eEBUHLeXUXcFvTdGf6eq-10" value="" style="endArrow=classic;html=1;rounded=0;entryX=0.046;entryY=1.006;entryDx=0;entryDy=0;entryPerimeter=0;exitX=0.607;exitY=-0.004;exitDx=0;exitDy=0;exitPerimeter=0;" edge="1" parent="1" source="C9Ks6f-5p77fA3nQ9G0u-2" target="IMrcSO9J0U59UtIUiwi_-12">
          <mxGeometry width="50" height="50" relative="1" as="geometry">
            <mxPoint x="366" y="696" as="sourcePoint" />
            <mxPoint x="440" y="468" as="targetPoint" />
            <Array as="points">
              <mxPoint x="374" y="672" />
              <mxPoint x="90" y="672" />
              <mxPoint x="90" y="336" />
              <mxPoint x="157" y="336" />
            </Array>
          </mxGeometry>
        </mxCell>
        <mxCell id="eEBUHLeXUXcFvTdGf6eq-11" value="" style="endArrow=classic;html=1;rounded=0;entryX=0.031;entryY=0.992;entryDx=0;entryDy=0;entryPerimeter=0;exitX=0.883;exitY=-0.013;exitDx=0;exitDy=0;exitPerimeter=0;" edge="1" parent="1" source="C9Ks6f-5p77fA3nQ9G0u-2" target="fm04QgTXL7wbrk_kWz1A-15">
          <mxGeometry width="50" height="50" relative="1" as="geometry">
            <mxPoint x="210" y="278" as="sourcePoint" />
            <mxPoint x="260" y="228" as="targetPoint" />
            <Array as="points">
              <mxPoint x="478" y="648" />
              <mxPoint x="66" y="648" />
              <mxPoint x="66" y="144" />
              <mxPoint x="158" y="144" />
            </Array>
          </mxGeometry>
        </mxCell>
      </root>
    </mxGraphModel>
  </diagram>
</mxfile>
